PathFileType	4	(X/Y/Z)	RBDS027\RBDS027runT35.trc
DataRate	CameraRate	NumFrames	NumMarkers	Units	OrigDataRate	OrigDataStartFrame	OrigNumFrames
150.000000	150.000000	5	33	mm	150.000000	1125	4500
Frame#	Time	L.ASIS			L.Heel.Bottom			L.Heel.Lateral			L.Heel.Top			L.Iliac.Crest			L.MT1			L.MT5			L.PSIS			L.Shank.Bottom.Lateral			L.Shank.Bottom.Medial			L.Shank.Top.Lateral			L.Shank.Top.Medial			L.Thigh.Bottom.Lateral			L.Thigh.Bottom.Medial			L.Thigh.Top.Lateral			L.Thigh.Top.Medial			R.ASIS			R.ASY			R.Heel.Bottom			R.Heel.Lateral			R.Heel.Top			R.Iliac.Crest			R.MT1			R.MT5			R.PSIS			R.Shank.Bottom.Lateral			R.Shank.Bottom.Medial			R.Shank.Top.Lateral			R.Shank.Top.Medial			R.Thigh.Bottom.Lateral			R.Thigh.Bottom.Medial			R.Thigh.Top.Lateral			R.Thigh.Top.Medial			
		X1	Y1	Z1	X2	Y2	Z2	X3	Y3	Z3	X4	Y4	Z4	X5	Y5	Z5	X6	Y6	Z6	X7	Y7	Z7	X8	Y8	Z8	X9	Y9	Z9	X10	Y10	Z10	X11	Y11	Z11	X12	Y12	Z12	X13	Y13	Z13	X14	Y14	Z14	X15	Y15	Z15	X16	Y16	Z16	X17	Y17	Z17	X18	Y18	Z18	X19	Y19	Z19	X20	Y20	Z20	X21	Y21	Z21	X22	Y22	Z22	X23	Y23	Z23	X24	Y24	Z24	X25	Y25	Z25	X26	Y26	Z26	X27	Y27	Z27	X28	Y28	Z28	X29	Y29	Z29	X30	Y30	Z30	X31	Y31	Z31	X32	Y32	Z32	X33	Y33	Z33	

1126	7.500000000000001	2144.093860442626	885.1313946412138	887.7193253719765	1606.05213300339	160.7594523329958	1023.759665630454	1635.979646981233	155.0220137262829	974.4877702059433	1646.597372548937	189.1204244539009	1018.532287436922	2100.890896175974	963.3307074982793	874.0003165711215	1779.509785838513	36.24535487514146	1045.513307420621	1735.971024971613	52.22533785396872	938.7064712202898	1998.80263274338	929.1917063703511	1000.74131252656	1725.187530970198	223.6269750743561	947.9114381914228	1703.131214729865	244.3592343907786	994.1401925882826	1751.277115010782	297.6110510317239	929.7127074624259	1735.203736335627	316.7606811046145	977.2078678048799	1941.454079132325	570.0620407297024	877.1787960621688	1901.118188920254	586.2506290900795	933.8723955021682	1960.714009092542	677.8979758120008	864.5256582937837	1926.61819564188	692.7502026256033	921.5624805849316	2178.937124863241	896.31958019443	1149.804723097688	2223.711867383472	145.3951519481044	1093.231590953341	2039.598713787795	185.8062315221506	1070.876112835363	2071.024325584779	183.5703547794967	1116.593152309305	2070.375480704545	219.46136716135	1074.695169598923	2128.683455330007	980.5394152828537	1183.545500333871	2232.025222429205	86.69787862558928	1039.470464955345	2193.367949317213	96.93655261796575	1150.136118381864	2012.849034512944	926.0387367285255	1096.065507391231	2152.855559258079	264.7501934062673	1131.41735524221	2130.96732730622	287.3273959120834	1091.223766531607	2185.943794265716	340.0647864397732	1153.010170926899	2160.519220317783	359.949515195685	1110.817099663115	2300.615995538983	594.3053682283354	1192.109193813182	2253.561665252086	552.5237180101246	1154.108356891982	2218.835388153384	664.5903495151562	1210.337573392713	2173.632482033925	625.6775071116638	1173.510789973221	
1127	7.506666666666667	2147.268073644652	887.5436763492575	887.6386927227173	1596.797397672863	176.2360581329891	1022.850609300408	1625.522505639793	167.7067523480095	973.2928929589867	1639.062364377375	201.7110845054594	1016.481625287165	2106.937128934789	967.6816665849819	873.7128087817398	1761.844757907168	39.87576647678856	1043.559696220323	1717.716152067424	56.92323413438474	937.7031059030752	2001.483782367806	933.8257906790203	998.8161124541789	1714.33104532252	233.3473205876399	945.9376670675533	1693.525775240218	252.7081671048817	993.4043644609632	1740.299415724786	307.7428104096342	929.3491300271087	1725.180013873992	325.5929255845861	977.6548344633859	1934.077959354304	579.1948467586942	877.1303688800223	1895.258401432039	596.8233147467606	934.4559940158396	1957.372181686458	686.2591609392307	864.4215142743313	1924.780427343133	702.274712673663	922.0305914338477	2180.072818074024	901.3824503985495	1149.393179743537	2252.926961182488	139.3315050264497	1091.703311478265	2066.086471604617	162.9989981139298	1069.714193902546	2097.489445981283	163.3773103505905	1115.47678889536	2093.647422941892	199.2802466265732	1073.766614618643	2129.092966378768	986.1573131262542	1182.623720414685	2266.642570630546	82.08413474829096	1037.6154927224	2227.076861508489	88.00262198191606	1148.450436088289	2014.617225136521	930.9260543811007	1094.735938669316	2171.948892764567	252.0841030842928	1130.236464452239	2148.51697432348	272.8128500175304	1089.895069478575	2198.720631441563	329.7787294472331	1152.036600982967	2172.072942403031	347.4973919553974	1109.654242953706	2300.460561994428	597.5286756508293	1190.520226376545	2252.162099913336	555.7798079490585	1154.226749925446	2219.603643075308	668.7265661232725	1209.52263608551	2173.395842490622	629.9020410718505	1173.852395974011	
1128	7.513333333333334	2150.340429921817	889.8154997352456	887.593692610499	1588.54404090628	191.704897913735	1022.076583645175	1615.797450319453	180.6460441524464	972.2010236138302	1632.267191753494	214.3242476219982	1014.495364113036	2113.100257072659	971.6458028693808	873.3737965692397	1745.029665076685	44.41813375984663	1041.280104612309	1700.030747277929	62.67272305811413	936.6159158537603	2004.109665139769	938.2943408463676	996.8267357591875	1704.286550603798	243.1416683381221	943.9548054824669	1684.64042257735	261.212853458151	992.5359935128807	1730.289136281775	317.878786195988	928.8940526981521	1716.026581839838	334.5095819615318	977.9224767621098	1927.582168962087	587.9765317186283	877.2473351001299	1890.228087591699	606.8371428707234	935.1492019127151	1954.501602612467	694.220911248085	864.4818761677358	1923.402945675806	711.2116191764914	922.6428292103757	2181.122526144823	905.9055758129433	1148.91627707811	2281.867669841492	134.8463758076951	1090.226468590696	2093.883636270637	141.4039355797931	1068.530614759423	2125.053949025979	144.5045398880698	1114.327322169114	2117.9651890644	180.0223783463879	1072.788034916359	2129.390400436261	991.2754807868148	1181.624595733252	2300.830190382384	79.4538677276545	1035.878015057212	2260.831105427822	81.19245812663151	1146.867693332542	2016.361308044333	935.4959657523024	1093.283018425457	2191.416166445963	240.0349450416338	1129.121498893513	2166.553040554453	258.8353934400633	1088.674323351939	2211.742121023965	319.5369769649916	1151.212395171912	2183.990664727691	335.0576167542297	1108.691052144766	2299.40472197685	599.4001950657498	1188.858922904362	2249.839913968729	557.9425181260006	1154.086769356524	2219.738090036746	671.7853654560497	1208.549348092131	2172.469959854827	633.2781036498054	1173.993125046229	
1129	7.52	2153.239232051209	891.9803090485076	887.5465419697401	1581.007268492828	207.0279909488573	1021.509446701752	1606.581181652584	193.7779213950166	971.2791728938456	1625.914391582153	226.8957473110848	1012.682448486779	2119.191325183597	975.1932826466397	872.9950792670419	1728.96440273913	49.88766754801777	1038.709869261095	1682.895867291558	69.54290431622293	935.4392795175376	2006.63908391413	942.5760076843545	994.8218317132345	1694.907767483276	252.9827318182618	942.0469464048009	1676.299200011424	269.9230533243186	991.5794388184889	1721.176305541159	327.9480310005951	928.3637472992216	1707.65694674723	343.5072510049932	978.005948527756	1922.03623811968	596.2259161974531	877.5396139876823	1886.046492219707	616.124264578594	935.9455843506383	1952.140240607071	701.643334573322	864.7052643942259	1922.465000397569	719.4393155817407	923.3752740000068	2182.097288262007	909.8401917491311	1148.334045979115	2310.199491610879	132.0256709338365	1088.786158878626	2122.66953624042	121.3402340166453	1067.369929056685	2153.413802050636	127.2189931177555	1113.170174502987	2143.052371952567	161.9694132097428	1071.811410357322	2129.618527046731	995.8227433987054	1180.564458931556	2334.170499197884	78.89229637185933	1034.212679356591	2294.241503314973	76.61688105336614	1145.356634267559	2018.05505261852	939.7126932464835	1091.74147162211	2211.047608374496	228.7927265962367	1128.116733323993	2184.855582880391	245.6132172548164	1087.624602245502	2224.888860905799	309.5199528617335	1150.587815096384	2196.128106111999	322.8417738548317	1107.997778826054	2297.410978315854	599.9125301225406	1187.218087757384	2246.600140319511	559.0206080447492	1153.696484306647	2219.202665542805	673.7359557061045	1207.481555132688	2170.852934911221	635.7928242821797	1173.928227147929	
1130	7.526666666666667	2155.903149019655	894.0631617154803	887.4640551516894	1573.895880837571	222.1117320344795	1021.197993253464	1597.66923661139	207.0605618039673	970.577779418203	1619.724079675603	239.3910018438177	1011.14591432075	2125.009715067685	978.3217407143492	872.5942233246235	1713.515299590733	56.26235401783124	1035.917839003386	1666.299286093383	77.55806736588069	934.1733083414753	2009.032091221376	946.6459902175748	992.855221707553	1686.055859158284	262.8542953798477	940.295583773576	1668.351282961893	278.8886736036001	990.592258538806	1712.894381489528	337.8886855477569	927.7842176941167	1700.002559278204	352.5823206942497	977.9187456008782	1917.510052396582	603.7600738623076	877.9788675105576	1882.737813319676	624.5183343388394	936.8041815388664	1950.338675474052	708.38312046238	865.0574186333092	1921.956409956419	726.8374975947439	924.1705496365016	2183.009793623527	913.1609632716863	1147.620857670621	2337.55628710967	130.8934641293022	1087.368060568146	2152.038817162762	103.0945949497716	1066.272498332966	2182.188344481759	111.7429515530502	1112.031061232404	2168.558788668212	145.3780627430851	1070.893751208064	2129.810442144085	999.7396368573625	1179.474796612924	2366.212960490257	80.41944112391209	1032.570985988402	2326.878207403171	74.30006744611572	1143.880782602552	2019.674344961272	943.5482465868341	1090.158489024026	2230.584416772366	218.5318062302166	1127.259516188618	2203.15738034997	233.3479215270738	1086.795604539013	2237.997038365155	299.912261232405	1150.198296247431	2208.301279195108	311.0611048720753	1107.621347258157	2294.470269960176	599.1146290858372	1185.701652619081	2242.481551171714	559.0760993918091	1153.078936494153	2217.98144441158	674.5959006579643	1206.401670788139	2168.564348599458	637.4714961387252	1173.671127561485	
